<?xml version="1.0" encoding="utf-8"?>
<!-- Generator: Adobe Illustrator 19.0.0, SVG Export Plug-In . SVG Version: 6.00 Build 0)  -->
<svg version="1.1" id="Calque_1" xmlns="http://www.w3.org/2000/svg" xmlns:xlink="http://www.w3.org/1999/xlink" x="0px" y="0px"
	 viewBox="-865.5 -78.7 2761 1250.5" style="enable-background:new -865.5 -78.7 2761 1250.5;" xml:space="preserve">
<style type="text/css">
	.st0{fill:#FFFFFF;}
</style>
<polygon class="st0" points="699.7,71.3 613.3,-78.6 536.1,-78.6 536.1,-55.7 536.1,-32.7 586.8,-32.7 646.7,71.3 536.1,71.3 
	536.1,117.2 647.2,117.2 586.6,222.1 536.1,222 536.1,245 536.1,267.9 613.1,268 700.3,117.2 713.2,94.8 "/>
<polygon class="st0" points="413.2,-78.7 326.5,71.3 313.1,94.5 326.2,117.2 413,267.8 490.2,267.9 490.2,245 490.2,222 439.5,222 
	379.1,117.2 490.2,117.2 490.2,71.3 379.5,71.3 439.7,-32.8 490.2,-32.8 490.2,-55.7 490.2,-78.7 "/>
<g>
	<path class="st0" d="M312.6,324.2c3,4.2,4.5,9.3,4.5,15.1c0,6.1-1.5,10.9-4.6,14.6c-1.7,2.1-4.2,3.9-7.6,5.6
		c5.1,1.8,8.9,4.8,11.4,8.7c2.6,4,3.9,8.8,3.9,14.5c0,5.9-1.5,11.1-4.4,15.8c-1.9,3.1-4.2,5.7-7,7.8c-3.2,2.4-6.9,4.1-11.2,5
		c-4.3,0.9-9,1.3-14,1.3h-44.7v-99.1H287C299,313.8,307.6,317.4,312.6,324.2z M258.8,330.9v21.9h24.1c4.3,0,7.8-0.8,10.5-2.5
		c2.7-1.6,4-4.5,4-8.7c0-4.6-1.8-7.7-5.3-9.1c-3.1-1-7-1.5-11.7-1.5h-21.6V330.9z M258.8,369.1v26.4h24.1c4.3,0,7.6-0.6,10-1.7
		c4.3-2.2,6.5-6.3,6.5-12.4c0-5.2-2.1-8.7-6.3-10.6c-2.3-1.1-5.6-1.6-9.9-1.7H258.8z"/>
	<path class="st0" d="M411.5,331.2H359v21h48.1v17.2H359v25.5h54.9v17.8h-75.1v-99.1h72.7V331.2z"/>
	<path class="st0" d="M503.3,331.2h-52.4v21H499v17.2h-48.1v25.5h54.9v17.8h-75.1v-99.1h72.7L503.3,331.2L503.3,331.2z"/>
	<path class="st0" d="M522.2,313.7h20.4v40.8l38.3-40.8h26.8L567,354.5l42.8,58.3h-26.6l-30.5-43.3l-10,10.1v33.1h-20.4L522.2,313.7
		L522.2,313.7z"/>
	<path class="st0" d="M694.6,331.2h-52.4v21h48.1v17.2h-48.1v25.5H697v17.8h-75.1v-99.1h72.7V331.2z"/>
	<path class="st0" d="M786.4,331.2H734v21h48.1v17.2H734v25.5h54.9v17.8h-75.1v-99.1h72.7v17.6H786.4z"/>
</g>
<g>
	<path class="st0" d="M-697.9,622.3c26.4-5.4,64.2-8.4,100.2-8.4c55.8,0,91.8,10.2,117,33c20.4,18,31.8,45.6,31.8,76.8
		c0,53.4-33.6,88.8-76.2,103.2v1.8c31.2,10.8,49.8,39.6,59.4,81.6c13.2,56.4,22.8,95.4,31.2,111h-54c-6.6-11.4-15.6-46.2-27-96.6
		c-12-55.8-33.6-76.8-81-78.6h-49.2v175.2h-52.2V622.3z M-645.7,806.5h53.4c55.8,0,91.2-30.6,91.2-76.8c0-52.2-37.8-75-93-75.6
		c-25.2,0-43.2,2.4-51.6,4.8V806.5z"/>
	<path class="st0" d="M-345.1,885.7c1.2,71.4,46.8,100.8,99.6,100.8c37.8,0,60.6-6.6,80.4-15l9,37.8c-18.6,8.4-50.4,18-96.6,18
		c-89.4,0-142.8-58.8-142.8-146.4s51.6-156.6,136.2-156.6c94.8,0,120,83.4,120,136.8c0,10.8-1.2,19.2-1.8,24.6H-345.1z
		 M-190.3,847.9c0.6-33.6-13.8-85.8-73.2-85.8c-53.4,0-76.8,49.2-81,85.8H-190.3z"/>
	<path class="st0" d="M-81.1,967.3c15.6,10.2,43.2,21,69.6,21c38.4,0,56.4-19.2,56.4-43.2c0-25.2-15-39-54-53.4
		c-52.2-18.6-76.8-47.4-76.8-82.2c0-46.8,37.8-85.2,100.2-85.2c29.4,0,55.2,8.4,71.4,18l-13.2,38.4c-11.4-7.2-32.4-16.8-59.4-16.8
		c-31.2,0-48.6,18-48.6,39.6c0,24,17.4,34.8,55.2,49.2c50.4,19.2,76.2,44.4,76.2,87.6c0,51-39.6,87-108.6,87
		c-31.8,0-61.2-7.8-81.6-19.8L-81.1,967.3z"/>
	<path class="st0" d="M426.5,873.7c0,107.4-74.4,154.2-144.6,154.2c-78.6,0-139.2-57.6-139.2-149.4c0-97.2,63.6-154.2,144-154.2
		C370.1,724.3,426.5,784.9,426.5,873.7z M196.1,876.7c0,63.6,36.6,111.6,88.2,111.6c50.4,0,88.2-47.4,88.2-112.8
		c0-49.2-24.6-111.6-87-111.6C223.1,763.9,196.1,821.5,196.1,876.7z"/>
	<path class="st0" d="M736.1,942.1c0,30,0.6,56.4,2.4,79.2h-46.8l-3-47.4h-1.2c-13.8,23.4-44.4,54-96,54
		c-45.6,0-100.2-25.2-100.2-127.2V730.9h52.8v160.8c0,55.2,16.8,92.4,64.8,92.4c35.4,0,60-24.6,69.6-48c3-7.8,4.8-17.4,4.8-27V730.9
		h52.8V942.1z"/>
	<path class="st0" d="M823.7,821.5c0-34.2-0.6-63.6-2.4-90.6h46.2l1.8,57h2.4c13.2-39,45-63.6,80.4-63.6c6,0,10.2,0.6,15,1.8v49.8
		c-5.4-1.2-10.8-1.8-18-1.8c-37.2,0-63.6,28.2-70.8,67.8c-1.2,7.2-2.4,15.6-2.4,24.6v154.8h-52.2V821.5z"/>
	<path class="st0" d="M1220.9,1010.5c-13.8,7.2-44.4,16.8-83.4,16.8c-87.6,0-144.6-59.4-144.6-148.2c0-89.4,61.2-154.2,156-154.2
		c31.2,0,58.8,7.8,73.2,15l-12,40.8c-12.6-7.2-32.4-13.8-61.2-13.8c-66.6,0-102.6,49.2-102.6,109.8c0,67.2,43.2,108.6,100.8,108.6
		c30,0,49.8-7.8,64.8-14.4L1220.9,1010.5z"/>
	<path class="st0" d="M1308.5,885.7c1.2,71.4,46.8,100.8,99.6,100.8c37.8,0,60.6-6.6,80.4-15l9,37.8c-18.6,8.4-50.4,18-96.6,18
		c-89.4,0-142.8-58.8-142.8-146.4s51.6-156.6,136.2-156.6c94.8,0,120,83.4,120,136.8c0,10.8-1.2,19.2-1.8,24.6H1308.5z
		 M1463.3,847.9c0.6-33.6-13.8-85.8-73.2-85.8c-53.4,0-76.8,49.2-81,85.8H1463.3z"/>
	<path class="st0" d="M1572.5,967.3c15.6,10.2,43.2,21,69.6,21c38.4,0,56.4-19.2,56.4-43.2c0-25.2-15-39-54-53.4
		c-52.2-18.6-76.8-47.4-76.8-82.2c0-46.8,37.8-85.2,100.2-85.2c29.4,0,55.2,8.4,71.4,18l-13.2,38.4c-11.4-7.2-32.4-16.8-59.4-16.8
		c-31.2,0-48.6,18-48.6,39.6c0,24,17.4,34.8,55.2,49.2c50.4,19.2,76.2,44.4,76.2,87.6c0,51-39.6,87-108.6,87
		c-31.8,0-61.2-7.8-81.6-19.8L1572.5,967.3z"/>
</g>
</svg>
